<?xml version="1.0" standalone="no"?>
<!DOCTYPE svg PUBLIC "-//W3C//DTD SVG 1.0//EN" "http://www.w3.org/TR/2001/REC-SVG-20010904/DTD/svg10.dtd">
<svg xmlns="http://www.w3.org/2000/svg" xmlns:xlink="http://www.w3.org/1999/xlink" id="body_1" width="14" height="14">

<g transform="matrix(0.02734375 0 0 0.02734375 0 0)">
	<g transform="matrix(1 0 0 1 0 0)">
	</g>
    <path transform="matrix(1 0 0 1 0 0)"  d="M120 236C 98.967964 236 80.00688 248.6694 71.95827 268.10046C 63.909653 287.53152 68.35855 309.89764 83.23045 324.76956C 98.10234 339.64145 120.46847 344.09033 139.89954 336.04175C 159.3306 327.99313 172 309.03204 172 288C 171.96748 259.29468 148.70534 236.03252 120 236zM120 312C 110.29291 312 101.54163 306.1526 97.82689 297.1844C 94.11215 288.21622 96.16548 277.8934 103.029434 271.02945C 109.89339 264.1655 120.21622 262.11215 129.1844 265.8269C 138.15259 269.54163 144 278.2929 144 288C 144 301.25482 133.25484 312 120 312z" stroke="none" fill="#000000" fill-rule="nonzero" />
	<g transform="matrix(1 0 0 1 0 0)">
	</g>
    <path transform="matrix(1 0 0 1 0 0)"  d="M408 236C 386.96796 236 368.00687 248.6694 359.95825 268.10046C 351.90967 287.53152 356.35855 309.89764 371.23044 324.76956C 386.10236 339.64145 408.46848 344.09033 427.89954 336.04175C 447.3306 327.99313 460 309.03204 460 288C 459.9675 259.29468 436.70532 236.03252 408 236zM408 312C 398.2929 312 389.54163 306.1526 385.8269 297.1844C 382.11215 288.21622 384.1655 277.8934 391.02945 271.02945C 397.8934 264.1655 408.21622 262.11215 417.1844 265.8269C 426.1526 269.54163 432 278.2929 432 288C 432 301.25482 421.25482 312 408 312z" stroke="none" fill="#000000" fill-rule="nonzero" />
	<g transform="matrix(1 0 0 1 0 0)">
	</g>
    <path transform="matrix(1 0 0 1 0 0)"  d="M477.4 193.04L384 176L304.485 110.025C 296.6045 103.551636 286.72437 100.009 276.526 100L276.526 100L159.38 100C 146.00597 99.96833 133.35085 106.05077 125.021 116.514L125.021 116.514L74.232 176L40 176C 20.126884 176.02203 4.0220413 192.12689 4 212L4 212L4 256C 4.0270042 280.28934 23.710667 299.973 48 300L48 300L57.145 300C 52.290634 274.68286 63.09928 248.92459 84.56612 234.65228C 106.03294 220.37997 133.96707 220.37999 155.4339 234.65228C 176.90073 248.92459 187.70937 274.68286 182.855 300L182.855 300L345.145 300C 340.29065 274.68286 351.09927 248.92459 372.5661 234.65228C 394.03296 220.37997 421.96707 220.37999 443.4339 234.65228C 464.90073 248.92459 475.70935 274.68286 470.85498 300L470.85498 300L472 300C 491.8731 299.97797 507.97797 283.8731 508 264L508 264L508 228.632C 508.0894 210.80217 495.04156 195.62578 477.4 193.04zM180 164C 180 170.62741 174.62741 176 168 176L168 176L115.245 176C 112.90234 176.00133 110.773155 174.63907 109.79255 172.51152C 108.81194 170.38397 109.15927 167.88028 110.682 166.1L110.682 166.1L145.59799 125.200005C 147.8794 122.53276 151.21416 120.99802 154.724 121L154.724 121L168 121C 174.62741 121 180 126.37258 180 133zM240 220L224 220C 217.37259 220 212 214.62741 212 208C 212 201.37259 217.37259 196 224 196L224 196L240 196C 246.62741 196 252 201.37259 252 208C 252 214.62741 246.62741 220 240 220zM334.479 176.294L219.972 176.028C 213.35551 176.01256 207.99998 170.6445 208 164.028L208 164.028L208 133C 208 126.37258 213.37259 121 220 121L220 121L277.548 121C 280.24524 121.00021 282.86374 121.90909 284.98102 123.58L284.98102 123.58L338.209 165.58C 340.2203 167.16371 341.00525 169.8491 340.16354 172.26677C 339.32187 174.68442 337.03894 176.30176 334.479 176.294z" stroke="none" fill="#000000" fill-rule="nonzero" />
</g>
</svg>