<svg width="24" height="24" viewBox="0 0 24 24" fill="none" xmlns="http://www.w3.org/2000/svg">
<g clip-path="url(#clip0)">
<path d="M4.75 22.1719C4.5625 22.9688 5.07812 23.7656 5.875 24C5.96875 24 6.10938 24 6.25 24C6.90625 24 7.51562 23.5781 7.70312 22.875L8.875 18.1406L6.39062 15.7031L4.75 22.1719ZM5.45312 12.9844L7.42188 5.48438C7.51562 5.10938 7.23438 4.73438 6.85938 4.59375C4.79688 4.125 2.6875 5.34375 2.17188 7.3125L1 11.9062C0.90625 12.2812 1.14062 12.7031 1.5625 12.7969L4.51562 13.5C4.9375 13.5938 5.35938 13.3594 5.45312 12.9844ZM18.25 7.5H17.5C17.0781 7.5 16.75 7.875 16.75 8.25V9H15.1094L12.9062 6.84375C12.3906 6.32812 11.6875 6 10.9375 6C9.67188 6 8.59375 6.89062 8.26562 8.10938L7 13.1719C7 13.2656 7 13.4062 7 13.5C7 13.875 7.1875 14.3438 7.42188 14.5781L11.5 18.6562V22.5C11.5 23.3438 12.1562 24 13 24C13.7969 24 14.5 23.3438 14.5 22.5V18.6562C14.5 17.8594 14.1719 17.1094 13.6094 16.5L11.4062 14.3438C11.4062 14.2969 11.4062 14.2969 11.4531 14.25L12.3438 10.5469L13.4219 11.5781C13.7031 11.8594 14.0781 12.0469 14.4531 12.0469H16.7031V23.2969C16.7031 23.6719 17.0781 24.0469 17.4531 24.0469H18.2031C18.625 24.0469 18.9531 23.6719 18.9531 23.2969V8.25C19 7.875 18.625 7.5 18.25 7.5ZM12.25 4.5C13.4688 4.5 14.5 3.51562 14.5 2.25C14.5 1.03125 13.4688 0 12.25 0C10.9844 0 10 1.03125 10 2.25C10 3.51562 10.9844 4.5 12.25 4.5Z" fill="black"/>
</g>
<defs>
<clipPath id="clip0">
<rect width="24" height="24" fill="white"/>
</clipPath>
</defs>
</svg>
