<svg width="24" height="24" viewBox="0 0 24 24" fill="none" xmlns="http://www.w3.org/2000/svg">
<g clip-path="url(#clip0)">
<path d="M13.75 4.5C14.9688 4.5 16 3.51562 16 2.25C16 1.03125 14.9688 0 13.75 0C12.4844 0 11.5 1.03125 11.5 2.25C11.5 3.51562 12.4844 4.5 13.75 4.5ZM18.1562 11.5312L17.0781 10.9688L16.6094 9.5625C15.9062 7.5 13.9844 6.04688 11.8281 6C10.1406 6 9.20312 6.51562 7.46875 7.21875C6.4375 7.59375 5.59375 8.39062 5.125 9.375L4.79688 9.98438C4.42188 10.7344 4.75 11.625 5.45312 12C6.20312 12.375 7.09375 12.0938 7.46875 11.3438L7.79688 10.6875C7.9375 10.3594 8.21875 10.125 8.54688 9.98438L9.8125 9.46875L9.10938 12.3281C8.82812 13.3125 9.10938 14.3438 9.8125 15.0938L12.5781 18.1406C12.9531 18.5156 13.1875 18.9844 13.2812 19.4531L14.1719 22.875C14.3594 23.6719 15.1562 24.1875 15.9531 23.9531C16.7969 23.7656 17.2656 22.9688 17.0781 22.1719L16.0469 18C15.9062 17.4844 15.6719 17.0625 15.3438 16.6875L13.1875 14.3438L13.9844 11.1562L14.2656 11.9062C14.5 12.6562 15.0625 13.2656 15.7656 13.6406L16.8438 14.2031C17.5469 14.5781 18.4375 14.25 18.8125 13.5469C19.1875 12.7969 18.9062 11.8594 18.1562 11.5312ZM7.42188 18.0938C7.28125 18.4688 7.04688 18.8438 6.76562 19.125L4.42188 21.4688C3.8125 22.0312 3.8125 23.0156 4.42188 23.5781C4.98438 24.1875 5.96875 24.1875 6.53125 23.5781L9.34375 20.8125C9.625 20.5312 9.8125 20.1562 10 19.7812L10.6094 18.1875C8.03125 15.375 8.82812 16.2656 8.40625 15.7031L7.42188 18.0938Z" fill="black"/>
</g>
<defs>
<clipPath id="clip0">
<rect width="24" height="24" fill="white"/>
</clipPath>
</defs>
</svg>
