<svg width="24" height="24" viewBox="0 0 24 24" fill="none" xmlns="http://www.w3.org/2000/svg">
<g clip-path="url(#clip0)">
<path d="M23.3906 8.25H20.625L19.8281 6.32812C19.0312 4.3125 17.1094 3 14.9531 3H9C6.84375 3 4.92188 4.3125 4.125 6.32812L3.32812 8.25H0.5625C0.1875 8.25 -0.09375 8.625 0 8.95312L0.28125 10.0781C0.328125 10.3594 0.5625 10.5 0.84375 10.5H1.78125C1.125 11.0625 0.75 11.8594 0.75 12.75V15C0.75 15.7969 1.03125 16.4531 1.5 16.9688V19.5C1.5 20.3438 2.15625 21 3 21H4.5C5.29688 21 6 20.3438 6 19.5V18H18V19.5C18 20.3438 18.6562 21 19.5 21H21C21.7969 21 22.5 20.3438 22.5 19.5V16.9688C22.9219 16.4531 23.25 15.7969 23.25 15V12.75C23.25 11.8594 22.8281 11.0625 22.1719 10.5H23.1562C23.3906 10.5 23.625 10.3594 23.6719 10.0781L23.9531 8.95312C24.0469 8.625 23.7656 8.25 23.3906 8.25ZM6.89062 7.45312C7.26562 6.5625 8.0625 6 9 6H14.9531C15.8906 6 16.6875 6.5625 17.0625 7.45312L18 9.75H6L6.89062 7.45312ZM4.5 15C3.5625 15 3 14.4375 3 13.5C3 12.6094 3.5625 12 4.5 12C5.39062 12 6.75 13.3594 6.75 14.25C6.75 15.1406 5.39062 15 4.5 15ZM19.5 15C18.5625 15 17.25 15.1406 17.25 14.25C17.25 13.3594 18.5625 12 19.5 12C20.3906 12 21 12.6094 21 13.5C21 14.4375 20.3906 15 19.5 15Z" fill="black"/>
</g>
<defs>
<clipPath id="clip0">
<rect width="24" height="24" fill="white"/>
</clipPath>
</defs>
</svg>
