<svg width="24" height="24" viewBox="0 0 24 24" fill="none" xmlns="http://www.w3.org/2000/svg">
<path d="M15.0625 5.625C15.9766 5.625 16.75 4.88672 16.75 3.9375C16.75 3.02344 15.9766 2.25 15.0625 2.25C14.1133 2.25 13.375 3.02344 13.375 3.9375C13.375 4.88672 14.1133 5.625 15.0625 5.625ZM14.9219 9.87891C15.0625 10.0195 15.3789 10.125 15.5898 10.125H15.625H17.875C18.4727 10.125 19 9.63281 19 9C19 8.40234 18.4727 7.875 17.875 7.875H16.0117L13.5156 5.87109C13.3398 5.76562 13.0234 5.625 12.8125 5.625C12.5664 5.625 12.25 5.76562 12.0742 5.90625L8.13672 9.28125C7.92578 9.45703 7.75 9.84375 7.75 10.125C7.75 10.4766 7.96094 10.8984 8.24219 11.0742L11.125 13.0078V16.875C11.125 17.5078 11.6172 18 12.25 18C12.8477 18 13.375 17.5078 13.375 16.875V12.375C13.3398 12.0586 13.1289 11.6367 12.8477 11.4609L11.4062 10.4766L13.4453 8.71875L14.9219 9.87891ZM19 11.25C16.5039 11.25 14.5 13.2891 14.5 15.75C14.5 18.2461 16.5039 20.25 19 20.25C21.4609 20.25 23.5 18.2461 23.5 15.75C23.5 13.2891 21.4609 11.25 19 11.25ZM19 18C17.7344 18 16.75 17.0156 16.75 15.75C16.75 14.5195 17.7344 13.5 19 13.5C20.2305 13.5 21.25 14.5195 21.25 15.75C21.25 17.0156 20.2305 18 19 18ZM5.5 11.25C3.00391 11.25 1 13.2891 1 15.75C1 18.2461 3.00391 20.25 5.5 20.25C7.96094 20.25 10 18.2461 10 15.75C10 13.2891 7.96094 11.25 5.5 11.25ZM5.5 18C4.23438 18 3.25 17.0156 3.25 15.75C3.25 14.5195 4.23438 13.5 5.5 13.5C6.73047 13.5 7.75 14.5195 7.75 15.75C7.75 17.0156 6.73047 18 5.5 18Z" fill="black"/>
</svg>
